<?xml version="1.0" encoding="UTF-8"?>
<svg id="Layer_1" xmlns="http://www.w3.org/2000/svg" xmlns:xlink="http://www.w3.org/1999/xlink" version="1.1" viewBox="0 0 800 800">
  <!-- Generator: Adobe Illustrator 29.8.1, SVG Export Plug-In . SVG Version: 2.1.1 Build 2)  -->
  <defs>
    <style>
      .st0 {
        fill: url(#linear-gradient1);
      }

      .st1 {
        fill: url(#linear-gradient);
      }
    </style>
    <linearGradient id="linear-gradient" x1="821" y1="-15.3" x2="-13.4" y2="807.8" gradientUnits="userSpaceOnUse">
      <stop offset="0" stop-color="#000"/>
      <stop offset="1" stop-color="#333"/>
    </linearGradient>
    <linearGradient id="linear-gradient1" x1="91" y1="707.1" x2="763.5" y2="38" gradientUnits="userSpaceOnUse">
      <stop offset="0" stop-color="#fff"/>
      <stop offset="1" stop-color="#aaa"/>
    </linearGradient>
  </defs>
  <rect class="st1" width="800" height="800"/>
  <path class="st0" d="M160.8,708.8c41-2.3,81.5-10.6,120.1-24.6,10.8-3.8,24.2-9,38.6-15.1,148.6,44.3,305-40.3,349.3-188.9,15.7-52.5,15.6-108.5-.2-161,41.5-97.3,51.3-184.6,23.9-212-20.1-15-45.8-20.7-70.4-15.4-15.5,1-27.2,14.4-26.2,29.9,1,15.5,14.4,27.2,29.9,26.2.3,0,.6,0,.9,0,8.4-1,16.9-.9,25.3.3,1.4,34-4.1,67.9-16.2,99.7-84-130.4-257.8-167.9-388.2-83.9-130.4,84-167.9,257.8-83.9,388.2,10.8,16.8,23.4,32.4,37.5,46.5,14.1,14,29.7,26.5,46.4,37.3-31.8,12.1-65.7,17.7-99.7,16.2-1.1-8.4-1.2-16.9-.3-25.3,1.3-15.4-10.2-29-25.7-30.3-15.3-1.4-28.8,9.8-30.3,25.1,0,.2,0,.4,0,.6-5.3,24.6.3,50.3,15.4,70.4,15.1,12.2,34.4,18,53.7,16.3ZM558.7,558.8c-40.4,40.6-94.9,64-152.2,65.5,44.5-26.8,85.5-58.8,122.3-95.3,36.5-36.9,68.5-78.1,95.3-122.6-1.4,57.3-24.9,111.9-65.4,152.5h0ZM241,558.8c-13.4-13.5-25-28.6-34.6-44.9,54.4-13.7,105.2-39,148.8-74.3,12.2-9.6,14.4-27.2,4.8-39.4s-27.2-14.4-39.4-4.8c-39.8,32.4-86.6,55-136.8,65.9-33.1-119.6,37-243.4,156.6-276.4,110-30.4,225.4,26.5,268.2,132.3-29.5,63.9-69.9,122.1-119.5,172.1-50,49.6-108.3,90-172.2,119.5-28.5-11.3-54.3-28.3-75.9-49.9h0ZM399.8,360.2c-11-11-11-28.7,0-39.7,11-11,28.7-11,39.7,0,11,11,11,28.7,0,39.7h0c-11,11-28.7,11-39.7,0Z"/>
</svg>